<svg xmlns="http://www.w3.org/2000/svg" width="1600" height="1000" viewBox="0 0 1600 1000">
  <defs>
    <linearGradient id="g" x1="0" y1="0" x2="1" y2="1">
      <stop offset="0" stop-color="#0a0a0f" />
      <stop offset="0.6" stop-color="#101a2a" />
      <stop offset="1" stop-color="#0a0a0f" />
    </linearGradient>
    <radialGradient id="r1" cx="25%" cy="30%" r="75%">
      <stop offset="0" stop-color="#38bdf8" stop-opacity="0.18" />
      <stop offset="1" stop-color="#38bdf8" stop-opacity="0" />
    </radialGradient>
    <radialGradient id="r2" cx="80%" cy="80%" r="75%">
      <stop offset="0" stop-color="#f59e0b" stop-opacity="0.12" />
      <stop offset="1" stop-color="#f59e0b" stop-opacity="0" />
    </radialGradient>
    <linearGradient id="line" x1="0" y1="0" x2="1" y2="0">
      <stop offset="0" stop-color="#38bdf8" stop-opacity="0" />
      <stop offset="0.5" stop-color="#38bdf8" stop-opacity="0.55" />
      <stop offset="1" stop-color="#38bdf8" stop-opacity="0" />
    </linearGradient>
  </defs>
  <rect width="1600" height="1000" fill="url(#g)" />
  <rect width="1600" height="1000" fill="url(#r1)" />
  <rect width="1600" height="1000" fill="url(#r2)" />
  <g opacity="0.22">
    <path d="M-120 640 C 260 580, 470 720, 860 650 C 1160 595, 1340 720, 1760 660" fill="none" stroke="#94a3b8" stroke-opacity="0.25" stroke-width="1.2" />
    <path d="M-150 380 C 220 320, 520 470, 880 400 C 1180 345, 1400 460, 1760 390" fill="none" stroke="#94a3b8" stroke-opacity="0.18" stroke-width="1.2" />
  </g>
  <rect x="280" y="410" width="1040" height="180" rx="28" fill="#0b0b12" fill-opacity="0.35" stroke="#ffffff" stroke-opacity="0.10" />
  <rect x="360" y="505" width="880" height="2" fill="url(#line)" opacity="0.8" />
  <g fill="#e5e7eb">
    <text x="800" y="485" text-anchor="middle" font-size="44" font-family="Inter, system-ui, -apple-system, Segoe UI, Roboto, Arial" font-weight="600" fill="#f8fafc">
      IMCUFIDE · Contexto
    </text>
    <text x="800" y="545" text-anchor="middle" font-size="16" font-family="JetBrains Mono, ui-monospace, SFMono-Regular, Menlo, Monaco, Consolas, monospace" letter-spacing="3" fill="#94a3b8">
      CASE STUDY VISUAL
    </text>
  </g>
</svg>

